<mxfile host="app.diagrams.net" agent="Mozilla/5.0 (Windows NT 10.0; Win64; x64) AppleWebKit/537.36 (KHTML, like Gecko) Chrome/116.0.0.0 Safari/537.36" version="27.2.0">
  <diagram name="第 1 页" id="Ucv2GgbXj7bZguftJPe6">
    <mxGraphModel dx="1472" dy="798" grid="1" gridSize="10" guides="1" tooltips="1" connect="1" arrows="1" fold="1" page="1" pageScale="1" pageWidth="827" pageHeight="1169" math="0" shadow="0">
      <root>
        <mxCell id="0" />
        <mxCell id="1" parent="0" />
        <mxCell id="gXH2KROTv9_O8nOjZuND-2" value="首位广告" style="whiteSpace=wrap;html=1;" vertex="1" parent="1">
          <mxGeometry x="40" y="140" width="120" height="60" as="geometry" />
        </mxCell>
        <mxCell id="gXH2KROTv9_O8nOjZuND-3" value="&lt;span data-copy-origin=&quot;https://odocs.myoas.com&quot; data-docs-delta=&quot;[[20,&amp;quot;首位广告标＞资源类型标＞官方标＞广告主权益标＞竞价广告标＞政务标&amp;quot;,&amp;quot;inline-dir:\&amp;quot;ltr\&amp;quot;&amp;quot;]]&quot;&gt;&lt;p style=&quot;line-height: 100%;margin-bottom: 0pt;margin-top: 0pt;font-size: 11pt;color: #494949;&quot; class=&quot;ql-direction-ltr ql-long-284244&quot;&gt;&lt;span class=&quot;ql-author-284244&quot;&gt;资源类型标&lt;/span&gt;&lt;/p&gt;&lt;/span&gt;" style="whiteSpace=wrap;html=1;" vertex="1" parent="1">
          <mxGeometry x="40" y="250" width="120" height="60" as="geometry" />
        </mxCell>
        <mxCell id="gXH2KROTv9_O8nOjZuND-4" value="&lt;span style=&quot;color: rgb(73, 73, 73); font-size: 14.6667px;&quot;&gt;官方标&lt;/span&gt;" style="whiteSpace=wrap;html=1;" vertex="1" parent="1">
          <mxGeometry x="40" y="370" width="120" height="60" as="geometry" />
        </mxCell>
        <mxCell id="gXH2KROTv9_O8nOjZuND-8" value="&lt;br&gt;&lt;span style=&quot;color: rgb(73, 73, 73); font-family: Helvetica; font-size: 14.6667px; font-style: normal; font-variant-ligatures: normal; font-variant-caps: normal; font-weight: 400; letter-spacing: normal; orphans: 2; text-align: center; text-indent: 0px; text-transform: none; widows: 2; word-spacing: 0px; -webkit-text-stroke-width: 0px; white-space: normal; background-color: rgb(236, 236, 236); text-decoration-thickness: initial; text-decoration-style: initial; text-decoration-color: initial; display: inline !important; float: none;&quot;&gt;广告主权益标&lt;/span&gt;&lt;div&gt;&lt;br/&gt;&lt;/div&gt;" style="whiteSpace=wrap;html=1;" vertex="1" parent="1">
          <mxGeometry x="40" y="510" width="120" height="60" as="geometry" />
        </mxCell>
        <mxCell id="gXH2KROTv9_O8nOjZuND-10" value="&lt;br&gt;&lt;span style=&quot;color: rgb(73, 73, 73); font-family: Helvetica; font-size: 14.6667px; font-style: normal; font-variant-ligatures: normal; font-variant-caps: normal; font-weight: 400; letter-spacing: normal; orphans: 2; text-align: center; text-indent: 0px; text-transform: none; widows: 2; word-spacing: 0px; -webkit-text-stroke-width: 0px; white-space: normal; background-color: rgb(236, 236, 236); text-decoration-thickness: initial; text-decoration-style: initial; text-decoration-color: initial; display: inline !important; float: none;&quot;&gt;竞价广告标&lt;/span&gt;" style="whiteSpace=wrap;html=1;" vertex="1" parent="1">
          <mxGeometry x="40" y="650" width="120" height="60" as="geometry" />
        </mxCell>
        <mxCell id="gXH2KROTv9_O8nOjZuND-13" value="&lt;span data-copy-origin=&quot;https://odocs.myoas.com&quot; data-docs-delta=&quot;[[20,&amp;quot;应用下标后台：&amp;quot;,&amp;quot;inline-dir:\&amp;quot;ltr\&amp;quot;&amp;quot;],[20,&amp;quot;\n&amp;quot;,&amp;quot;24:\&amp;quot;hfpQ\&amp;quot;|direction:\&amp;quot;ltr\&amp;quot;&amp;quot;],[20,&amp;quot;appstore_resource.app_extra_info&amp;nbsp; where type = 3&amp;quot;,&amp;quot;inline-dir:\&amp;quot;ltr\&amp;quot;&amp;quot;],[20,&amp;quot;\n&amp;quot;,&amp;quot;24:\&amp;quot;KG1t\&amp;quot;|direction:\&amp;quot;ltr\&amp;quot;&amp;quot;],[20,&amp;quot;\n&amp;quot;,&amp;quot;24:\&amp;quot;nrkN\&amp;quot;&amp;quot;],[20,&amp;quot;应用下标库管理：&amp;quot;,&amp;quot;inline-dir:\&amp;quot;ltr\&amp;quot;&amp;quot;],[20,&amp;quot;\n&amp;quot;,&amp;quot;24:\&amp;quot;0zpr\&amp;quot;|direction:\&amp;quot;ltr\&amp;quot;&amp;quot;],[20,&amp;quot;appstore_resource.subscript_lable&amp;quot;,&amp;quot;inline-dir:\&amp;quot;ltr\&amp;quot;&amp;quot;],[20,&amp;quot;\n&amp;quot;,&amp;quot;24:\&amp;quot;eeaw\&amp;quot;|direction:\&amp;quot;ltr\&amp;quot;&amp;quot;],[20,&amp;quot;\n&amp;quot;,&amp;quot;24:\&amp;quot;owhY\&amp;quot;&amp;quot;],[20,&amp;quot;下标(新)：&amp;quot;,&amp;quot;inline-dir:\&amp;quot;ltr\&amp;quot;&amp;quot;],[20,&amp;quot;\n&amp;quot;,&amp;quot;24:\&amp;quot;AwLg\&amp;quot;|direction:\&amp;quot;ltr\&amp;quot;&amp;quot;],[20,&amp;quot;appstore_resource.app_extra_info&amp;nbsp; type in (23,24)&amp;quot;,&amp;quot;inline-dir:\&amp;quot;ltr\&amp;quot;&amp;quot;],[20,&amp;quot;\n&amp;quot;,&amp;quot;24:\&amp;quot;A2Q8\&amp;quot;|direction:\&amp;quot;ltr\&amp;quot;&amp;quot;],[20,&amp;quot;\n&amp;quot;,&amp;quot;24:\&amp;quot;ZBQM\&amp;quot;&amp;quot;],[20,&amp;quot;应用下标：（保留这个）&amp;quot;,&amp;quot;inline-dir:\&amp;quot;ltr\&amp;quot;&amp;quot;],[20,&amp;quot;\n&amp;quot;,&amp;quot;24:\&amp;quot;MEDD\&amp;quot;|direction:\&amp;quot;ltr\&amp;quot;&amp;quot;],[20,&amp;quot;cdo_resource_ext.app_icon_content where type in(2,6,7) and subscript != &#39;&#39;&amp;quot;,&amp;quot;inline-dir:\&amp;quot;ltr\&amp;quot;&amp;quot;],[20,&amp;quot;\n&amp;quot;,&amp;quot;24:\&amp;quot;bfCV\&amp;quot;|direction:\&amp;quot;ltr\&amp;quot;&amp;quot;],[20,&amp;quot;\n&amp;quot;,&amp;quot;24:\&amp;quot;RlGI\&amp;quot;&amp;quot;],[20,&amp;quot;列表卡片标签管理：（保留这个）&amp;quot;,&amp;quot;inline-dir:\&amp;quot;ltr\&amp;quot;&amp;quot;],[20,&amp;quot;\n&amp;quot;,&amp;quot;24:\&amp;quot;X4qz\&amp;quot;|direction:\&amp;quot;ltr\&amp;quot;&amp;quot;],[20,&amp;quot;appstore_resource.app_extra_info&amp;nbsp; where (type = 3 and content = 1004) or type = 23&amp;quot;,&amp;quot;inline-dir:\&amp;quot;ltr\&amp;quot;&amp;quot;]]&quot;&gt;&lt;p style=&quot;line-height: 100%;margin-bottom: 0pt;margin-top: 0pt;font-size: 11pt;color: #494949;&quot; class=&quot;ql-direction-ltr ql-long-284244&quot;&gt;&lt;span style=&quot;background-color: transparent; font-size: 11pt;&quot;&gt;列表卡片标签管理：&lt;/span&gt;&lt;br&gt;&lt;/p&gt;&lt;p style=&quot;line-height: 100%;margin-bottom: 0pt;margin-top: 0pt;font-size: 11pt;color: #494949;&quot; class=&quot;ql-direction-ltr ql-long-284244&quot;&gt;&lt;span class=&quot;ql-author-284244&quot;&gt;appstore_resource.app_extra_info&amp;nbsp; where (type = 3 and content = 1004) or type = 23&lt;/span&gt;&lt;/p&gt;&lt;/span&gt;" style="whiteSpace=wrap;html=1;" vertex="1" parent="1">
          <mxGeometry x="610" y="680" width="690" height="60" as="geometry" />
        </mxCell>
        <mxCell id="gXH2KROTv9_O8nOjZuND-14" value="角标类型" style="text;html=1;align=center;verticalAlign=middle;resizable=0;points=[];autosize=1;strokeColor=#d6b656;fillColor=#fff2cc;" vertex="1" parent="1">
          <mxGeometry x="60" y="30" width="70" height="30" as="geometry" />
        </mxCell>
        <mxCell id="gXH2KROTv9_O8nOjZuND-15" value="后台界面" style="whiteSpace=wrap;html=1;fillColor=#fff2cc;strokeColor=#d6b656;" vertex="1" parent="1">
          <mxGeometry x="945" y="40" width="120" height="60" as="geometry" />
        </mxCell>
        <mxCell id="gXH2KROTv9_O8nOjZuND-16" value="&lt;p style=&quot;line-height: 14.6667px; margin-bottom: 0pt; margin-top: 0pt; font-size: 11pt; color: rgb(73, 73, 73);&quot; class=&quot;ql-direction-ltr ql-long-284244&quot;&gt;&lt;span style=&quot;font-size: 11pt; text-align: justify; background-color: transparent;&quot; class=&quot;ql-author-256471&quot;&gt;应用下标：当前实际使用中，只有“官方”标在此后台配置；历史还存在福利、精品等标签，&lt;/span&gt;&lt;span style=&quot;font-size: 11pt; text-align: justify; background-color: transparent;&quot; data-comment-guid=&quot;comment-w7CJpligpHakv3lP&quot; class=&quot;ql-author-256471 ql-commented ql-commented-background&quot;&gt;但线上应该没用了。&lt;/span&gt;&lt;/p&gt;&lt;p style=&quot;line-height: 14.6667px; margin-bottom: 0pt; margin-top: 0pt; font-size: 11pt; color: rgb(73, 73, 73);&quot; class=&quot;ql-direction-ltr ql-long-284244&quot;&gt;&lt;span class=&quot;ql-author-284244&quot;&gt;appstore_resource.app_extra_info&amp;nbsp; where type = 3&lt;/span&gt;&lt;/p&gt;" style="whiteSpace=wrap;html=1;" vertex="1" parent="1">
          <mxGeometry x="800" y="140" width="410" height="60" as="geometry" />
        </mxCell>
        <mxCell id="gXH2KROTv9_O8nOjZuND-17" value="&lt;span data-copy-origin=&quot;https://odocs.myoas.com&quot; data-docs-delta=&quot;[[20,&amp;quot;应用下标库管理：实际使用中，用于新增自定义的标签类型（主要为广告主权益类型的标签），可定义标签文案以及颜色（目前后台配置全是统一的蓝色）&amp;quot;]]&quot;&gt;&lt;p style=&quot;line-height: 100%;margin-bottom: 0pt;margin-top: 0pt;text-align: justify;font-size: 11pt;color: #494949;&quot; class=&quot;ql-align-justify ql-direction-ltr ql-long-256471&quot; align=&quot;justify&quot;&gt;&lt;span class=&quot;ql-author-256471&quot;&gt;应用下标库管理：实际使用中，用于新增自定义的标签类型（主要为广告主权益类型的标签），可定义标签文案以及颜色&lt;/span&gt;&lt;span data-comment-guid=&quot;comment-jawYSUgbdgzEieKq&quot; class=&quot;ql-author-256471 ql-commented ql-commented-background&quot;&gt;（目前后台配置全是统一的蓝色）&lt;br&gt;&lt;br&gt;&lt;span style=&quot;text-align: center;&quot;&gt;appstore_resource.subscript_lable&lt;/span&gt;&lt;br&gt;&lt;/span&gt;&lt;/p&gt;&lt;/span&gt;" style="whiteSpace=wrap;html=1;" vertex="1" parent="1">
          <mxGeometry x="660" y="250" width="621" height="90" as="geometry" />
        </mxCell>
        <mxCell id="gXH2KROTv9_O8nOjZuND-19" value="&lt;span data-copy-origin=&quot;https://odocs.myoas.com&quot; data-docs-delta=&quot;[[20,&amp;quot;下标 (新)：&amp;quot;,&amp;quot;0:\&amp;quot;rgb(0%2C%200%2C%200)\&amp;quot;&amp;quot;],[20,&amp;quot;实际使用中主要配置的是“广告主权益”类型标签，对对应资源进行打标，系统下标即“应用下标库管理&#39;中的数据，自定义下标相当于将定义标签内容与资源打标的动作合并了。&amp;quot;]]&quot;&gt;&lt;p style=&quot;line-height: 100%;margin-bottom: 0pt;margin-top: 0pt;font-size: 11pt;color: #494949;&quot; class=&quot;ql-direction-ltr ql-long-256471&quot;&gt;&lt;span style=&quot;color: rgb(0, 0, 0);color: rgb(0, 0, 0);&quot; class=&quot;ql-author-256471&quot;&gt;下标 (新)：&lt;/span&gt;&lt;span class=&quot;ql-author-256471&quot;&gt;实际使用中主要配置的是“广告主权益”类型标签，对对应资源进行打标，系统下标即“应用下标库管理&#39;中的数据，自定义下标相当于将定义标签内容与资源打标的动作合并了。&lt;br&gt;&lt;br&gt;appstore_resource.app_extra_info&amp;nbsp; type in (23,24)&lt;br&gt;&lt;/span&gt;&lt;/p&gt;&lt;/span&gt;" style="whiteSpace=wrap;html=1;" vertex="1" parent="1">
          <mxGeometry x="650" y="410" width="660" height="90" as="geometry" />
        </mxCell>
        <mxCell id="gXH2KROTv9_O8nOjZuND-20" value="&lt;span data-copy-origin=&quot;https://odocs.myoas.com&quot; data-docs-delta=&quot;[[20,&amp;quot;竞价广告素材-应用下标：接收广告应用下标素材数据，商店侧审核&amp;quot;]]&quot;&gt;&lt;p style=&quot;line-height: 100%;margin-bottom: 0pt;margin-top: 0pt;text-align: justify;font-size: 11pt;color: #494949;&quot; class=&quot;ql-align-justify ql-direction-ltr ql-long-256471&quot; align=&quot;justify&quot;&gt;&lt;span class=&quot;ql-author-256471&quot;&gt;竞价广告素材-应用下标：接收广告应用下标素材数据，商店侧审核&lt;br&gt;&lt;span style=&quot;text-align: center;&quot;&gt;cdo_resource_ext.app_icon_content where type in(2,6,7) and subscript != &#39;&#39;&lt;/span&gt;&lt;br&gt;&lt;/span&gt;&lt;/p&gt;&lt;/span&gt;" style="whiteSpace=wrap;html=1;" vertex="1" parent="1">
          <mxGeometry x="710" y="560" width="540" height="60" as="geometry" />
        </mxCell>
        <mxCell id="gXH2KROTv9_O8nOjZuND-40" value="服务端" style="text;html=1;align=center;verticalAlign=middle;resizable=0;points=[];autosize=1;strokeColor=#d6b656;fillColor=#fff2cc;" vertex="1" parent="1">
          <mxGeometry x="355" y="60" width="60" height="30" as="geometry" />
        </mxCell>
      </root>
    </mxGraphModel>
  </diagram>
</mxfile>
